<svg id="svg" stroke="none" fill="white" xmlns="http://www.w3.org/2000/svg" xmlns:xlink="http://www.w3.org/1999/xlink" width="400" height="400" viewBox="0, 0, 400,400"><g id="svgg"><path id="path0" d="M328.000 44.000 C 328.000 73.595,325.686 76.913,314.032 64.036 C 282.082 28.731,201.951 13.774,142.740 32.062 C -4.762 77.621,-18.622 292.887,121.637 359.827 C 232.527 412.750,367.631 338.797,375.188 221.040 C 376.952 193.563,376.597 192.000,368.602 192.000 C 359.649 192.000,358.339 195.301,354.005 228.788 C 338.205 350.866,172.337 399.888,86.300 307.907 C -38.918 174.039,132.567 -31.809,284.995 69.398 L 310.000 86.000 283.000 87.183 C 259.281 88.222,256.000 89.315,256.000 96.183 C 256.000 103.465,259.010 104.000,300.000 104.000 L 344.000 104.000 344.000 60.000 C 344.000 18.667,343.515 16.000,336.000 16.000 C 328.762 16.000,328.000 18.667,328.000 44.000 M152.000 142.322 C 152.000 145.983,145.266 151.289,136.000 154.929 C 125.371 159.104,120.000 163.695,120.000 168.607 C 120.000 174.566,123.104 176.000,136.000 176.000 L 152.000 176.000 152.000 220.000 C 152.000 261.333,152.485 264.000,160.000 264.000 C 167.667 264.000,168.000 261.333,168.000 200.000 C 168.000 138.667,167.667 136.000,160.000 136.000 C 155.375 136.000,152.000 138.667,152.000 142.322 M209.045 142.118 C 198.300 149.645,192.045 170.941,192.045 200.000 C 192.045 247.275,203.764 264.000,236.890 264.000 C 266.469 264.000,279.955 243.958,279.955 200.000 C 279.955 146.370,244.405 117.351,209.045 142.118 M251.710 162.539 C 273.959 190.824,256.245 254.965,228.607 246.193 C 201.539 237.602,208.258 152.000,236.000 152.000 C 240.081 152.000,247.150 156.743,251.710 162.539 " fill-rule="evenodd"></path></g></svg>